<?xml version="1.0" encoding="UTF-8" standalone="no"?>
<!-- Created with Inkscape (http://www.inkscape.org/) -->

<svg
   width="165.48225mm"
   height="119.53642mm"
   viewBox="0 0 165.48225 119.53641"
   version="1.1"
   id="svg1"
   xml:space="preserve"
   inkscape:version="1.4.4 (dcaf3e7, 2026-05-05)"
   sodipodi:docname="sync-envelope.svg"
   xmlns:inkscape="http://www.inkscape.org/namespaces/inkscape"
   xmlns:sodipodi="http://sodipodi.sourceforge.net/DTD/sodipodi-0.dtd"
   xmlns="http://www.w3.org/2000/svg"
   xmlns:svg="http://www.w3.org/2000/svg"><sodipodi:namedview
     id="namedview1"
     pagecolor="#ffffff"
     bordercolor="#000000"
     borderopacity="0.25"
     inkscape:showpageshadow="2"
     inkscape:pageopacity="0.0"
     inkscape:pagecheckerboard="0"
     inkscape:deskcolor="#d1d1d1"
     inkscape:document-units="mm"
     showguides="false"
     inkscape:zoom="1.0582793"
     inkscape:cx="273.08481"
     inkscape:cy="213.55421"
     inkscape:window-width="1920"
     inkscape:window-height="1111"
     inkscape:window-x="-9"
     inkscape:window-y="-9"
     inkscape:window-maximized="1"
     inkscape:current-layer="layer1" /><defs
     id="defs1" /><g
     inkscape:label="Layer 1"
     inkscape:groupmode="layer"
     id="layer1"
     transform="translate(5.4763405,-22.74246)"><rect
       style="fill:#ffffff;fill-opacity:1;stroke:none;stroke-width:2.065"
       id="rect1"
       width="118.50605"
       height="83.504257"
       x="8.3242693"
       y="37.042984" /><path
       d="m 15.851694,27.82496 c -8.9693758,0 -16.24541777,7.27605 -16.24541777,16.24542 0,0.23813 0,0.44979 0.02646,0.68792 h -0.02646 v 67.73333 c 0,9.33979 7.59354197,16.93333 16.93333477,16.93333 H 118.13961 c 9.33979,0 16.93333,-7.59354 16.93333,-16.93333 V 44.7583 h -0.0265 c 0,-0.23813 0.0265,-0.44979 0.0265,-0.68792 0,-8.96937 -7.27604,-16.24542 -16.24541,-16.24542 z M 122.37294,61.77101 v 50.72062 c 0,2.32833 -1.905,4.23333 -4.23333,4.23333 H 16.539611 c -2.328334,0 -4.233334,-1.905 -4.233334,-4.23333 V 61.77101 l 40.957502,31.06208 c 8.30791,6.32354 19.81729,6.32354 28.15166,0 z M 12.306277,44.07038 c 0,-1.95792 1.5875,-3.54542 3.545417,-3.54542 H 118.82753 c 1.95791,0 3.54541,1.5875 3.54541,3.54542 0,1.11125 -0.52916,2.16958 -1.40229,2.83104 L 73.742529,82.72601 c -3.78354,2.8575 -9.02229,2.8575 -12.80584,0 L 13.708569,46.90142 c -0.873125,-0.66146 -1.402292,-1.71979 -1.402292,-2.83104 z"
       id="path1"
       style="stroke:#ffffff;stroke-width:10.165;stroke-dasharray:none;stroke-opacity:1;paint-order:stroke fill markers" /><path
       d="m 152.07157,103.75721 h -14.89703 c -1.00349,0 -1.91386,-0.60002 -2.29663,-1.53109 -0.38277,-0.93106 -0.17587,-1.99661 0.53795,-2.710426 l 4.83119,-4.83119 c -7.78991,-6.06227 -19.06613,-5.51397 -26.22499,1.64488 -7.75888,7.758866 -7.75888,20.328236 0,28.087116 7.75887,7.75887 20.32825,7.75887 28.08712,0 0.8483,-0.84831 1.6035,-1.74834 2.26559,-2.70009 1.04486,-1.50005 3.11389,-1.86213 4.61394,-0.81727 1.50005,1.04486 1.86213,3.1139 0.81727,4.61395 -0.87934,1.2621 -1.88282,2.46214 -3.01044,3.58977 -10.34516,10.34516 -27.11467,10.34516 -37.44949,0 -10.334827,-10.34517 -10.345167,-27.10433 0,-37.449496 9.75549,-9.75548 25.21116,-10.30378 35.6184,-1.67591 l 5.34844,-5.3588 c 0.71382,-0.71381 1.77937,-0.92072 2.71044,-0.53794 0.93106,0.38277 1.53108,1.29314 1.53108,2.296622 v 14.897034 c 0,1.3759 -1.10693,2.48284 -2.48284,2.48284 z"
       id="path1-1"
       style="fill:#000000;fill-opacity:1;stroke:#ffffff;stroke-width:10.903;stroke-dasharray:none;stroke-opacity:1;paint-order:stroke fill markers" /></g></svg>
